<?xml version="1.0" encoding="UTF-8" standalone="no"?>
<svg
   viewBox="0 0 512 512"
   version="1.1"
   id="svg4"
   sodipodi:docname="light-off.svg"
   width="512"
   height="512"
   inkscape:version="1.2.2 (b0a8486541, 2022-12-01)"
   xmlns:inkscape="http://www.inkscape.org/namespaces/inkscape"
   xmlns:sodipodi="http://sodipodi.sourceforge.net/DTD/sodipodi-0.dtd"
   xmlns="http://www.w3.org/2000/svg"
   xmlns:svg="http://www.w3.org/2000/svg">
  <defs
     id="defs8" />
  <sodipodi:namedview
     id="namedview6"
     pagecolor="#ffffff"
     bordercolor="#000000"
     borderopacity="0.25"
     inkscape:showpageshadow="2"
     inkscape:pageopacity="0.0"
     inkscape:pagecheckerboard="0"
     inkscape:deskcolor="#d1d1d1"
     showgrid="false"
     inkscape:zoom="0.69281672"
     inkscape:cx="13.71214"
     inkscape:cy="253.31375"
     inkscape:window-width="1389"
     inkscape:window-height="973"
     inkscape:window-x="507"
     inkscape:window-y="83"
     inkscape:window-maximized="1"
     inkscape:current-layer="svg4" />
  <!--! Font Awesome Pro 6.2.0 by @fontawesome - https://fontawesome.com License - https://fontawesome.com/license (Commercial License) Copyright 2022 Fonticons, Inc. -->
  <path
     d="m 336,384 c 9.6,-31.9 29.5,-59.1 49.2,-86.2 v 0 c 5.2,-7.1 10.4,-14.2 15.4,-21.4 C 420.4,247.9 432,213.4 432,176.1 432,78.8 353.2,0 256,0 158.8,0 80,78.8 80,176 c 0,37.3 11.6,71.9 31.4,100.3 5,7.2 10.2,14.3 15.4,21.4 v 0 c 19.8,27.1 39.7,54.4 49.2,86.2 h 160 z m -80,128 c 44.2,0 80,-35.8 80,-80 V 416 H 176 v 16 c 0,44.2 35.8,80 80,80 z M 176,176 c 0,8.8 -7.2,16 -16,16 -8.8,0 -16,-7.2 -16,-16 0,-61.9 50.1,-112 112,-112 8.8,0 16,7.2 16,16 0,8.8 -7.2,16 -16,16 -44.2,0 -80,35.8 -80,80 z"
     id="path2" />
</svg>
