<?xml version="1.0" encoding="UTF-8" standalone="no"?>
<svg
   viewBox="0 0 512 512"
   version="1.1"
   id="svg445"
   sodipodi:docname="light-on.svg"
   inkscape:version="1.2.2 (b0a8486541, 2022-12-01)"
   width="512"
   height="512"
   xmlns:inkscape="http://www.inkscape.org/namespaces/inkscape"
   xmlns:sodipodi="http://sodipodi.sourceforge.net/DTD/sodipodi-0.dtd"
   xmlns="http://www.w3.org/2000/svg"
   xmlns:svg="http://www.w3.org/2000/svg">
  <defs
     id="defs449" />
  <sodipodi:namedview
     id="namedview447"
     pagecolor="#ffffff"
     bordercolor="#000000"
     borderopacity="0.25"
     inkscape:showpageshadow="2"
     inkscape:pageopacity="0.0"
     inkscape:pagecheckerboard="0"
     inkscape:deskcolor="#d1d1d1"
     showgrid="false"
     inkscape:zoom="0.30902559"
     inkscape:cx="-242.69835"
     inkscape:cy="354.33959"
     inkscape:window-width="1350"
     inkscape:window-height="973"
     inkscape:window-x="546"
     inkscape:window-y="83"
     inkscape:window-maximized="1"
     inkscape:current-layer="svg445" />
  <!--! Font Awesome Pro 6.2.0 by @fontawesome - https://fontawesome.com License - https://fontawesome.com/license (Commercial License) Copyright 2022 Fonticons, Inc. -->
  <g
     id="g882"
     transform="translate(64)">
    <path
       d="M 192,0 C 90.02,0.3203 16,82.97 16,175.1 c 0,44.38 16.44,84.84 43.56,115.8 16.53,18.84 42.34,58.23 52.22,91.45 0.0313,0.25 0.0938,0.5166 0.125,0.7823 h 160.2 c 0.0313,-0.2656 0.0938,-0.5166 0.125,-0.7823 9.875,-33.22 35.69,-72.61 52.22,-91.45 C 351.6,260.8 368,220.4 368,175.1 368,78.8 289.2,0.0039 192,0 Z m 96.4,260.1 c -15.66,17.85 -35.04,46.3 -49.05,75.89 H 144.74 C 130.73,306.4 111.35,277.95 95.7,260.11 75.24,236.8 64,206.1 64,175.1 64,113.3 112.1,48.25 191.1,48 262.6,48 320,105.4 320,175.1 c 0,31 -11.2,61.7 -31.6,85 z M 176,80 c -44.1,0 -80,35.9 -80,80 0,8.844 7.156,16 16,16 8.844,0 16,-7.2 16,-16 0,-26.47 21.53,-48 48,-48 8.844,0 16,-7.148 16,-15.99 C 192,87.168 184.8,80 176,80 Z"
       id="path443"
       sodipodi:nodetypes="csccccccscccccscscsssssss" />
    <path
       d="m 192,512 c 44.2,0 80,-35.8 80,-80 V 416 H 112 v 16 c 0,44.2 35.8,80 80,80 z"
       id="path346" />
  </g>
</svg>
