<?xml version="1.0" encoding="UTF-8" standalone="no"?>
<!-- Created with Inkscape (http://www.inkscape.org/) -->

<svg
   width="512mm"
   height="512mm"
   viewBox="0 0 512 512"
   version="1.1"
   id="svg5"
   xml:space="preserve"
   inkscape:version="1.2.1 (9c6d41e410, 2022-07-14, custom)"
   sodipodi:docname="logo.svg"
   inkscape:export-filename="../png/logo.png"
   inkscape:export-xdpi="254"
   inkscape:export-ydpi="254"
   xmlns:inkscape="http://www.inkscape.org/namespaces/inkscape"
   xmlns:sodipodi="http://sodipodi.sourceforge.net/DTD/sodipodi-0.dtd"
   xmlns="http://www.w3.org/2000/svg"
   xmlns:svg="http://www.w3.org/2000/svg"><sodipodi:namedview
     id="namedview7"
     pagecolor="#ffffff"
     bordercolor="#666666"
     borderopacity="1.0"
     inkscape:showpageshadow="2"
     inkscape:pageopacity="0.0"
     inkscape:pagecheckerboard="0"
     inkscape:deskcolor="#d1d1d1"
     inkscape:document-units="mm"
     showgrid="false"
     inkscape:zoom="0.27696185"
     inkscape:cx="1030.8279"
     inkscape:cy="942.36805"
     inkscape:window-width="1389"
     inkscape:window-height="964"
     inkscape:window-x="507"
     inkscape:window-y="96"
     inkscape:window-maximized="1"
     inkscape:current-layer="layer1" /><defs
     id="defs2" /><g
     inkscape:label="Layer 1"
     inkscape:groupmode="layer"
     id="layer1"><circle
       style="fill:#e6ebe8;fill-opacity:1;stroke-width:0;stroke-linecap:round;stroke-linejoin:round"
       id="path4608"
       cx="256"
       cy="256"
       r="256" /><g
       id="g4554"
       transform="matrix(1.9682902,0,0,1.9682902,42.319707,63.405119)"><path
         d="m 65.71199,86.151611 c -15.339936,0 -28.318381,10.050976 -32.729101,23.907649 6.55753,-3.3178 13.954268,-5.17186 21.799884,-5.17186 h 17.174483 c 1.71745,0 3.122634,1.40519 3.122634,3.12263 0,1.71746 -1.405184,3.12264 -3.122634,3.12264 H 68.834624 54.782773 c 0,0 0,0 0,0 -3.239731,0 -6.381881,0.37081 -9.42645,1.05389 -5.054761,1.15147 -9.738712,3.20071 -13.93475,5.99155 0,0 0,0 0,0 -11.319546,7.55288 -18.79435,20.45325 -18.79435,35.11011 v 3.12263 c 0,2.5957 2.088261,4.68396 4.68395,4.68396 2.595688,0 4.68395,-2.08826 4.68395,-4.68396 v -3.12263 c 0,-9.50451 4.039908,-18.05272 10.499855,-24.04427 3.864259,14.73493 17.272066,25.60559 33.217012,25.60559 h 0.195164 c 25.781234,-0.13662 46.644336,-25.54705 46.644336,-56.870957 0,-8.314007 -1.46374,-16.218176 -4.11797,-23.341685 -0.50743,-1.346628 -2.47859,-1.288087 -3.16167,-0.01955 -3.66909,6.869802 -10.929221,11.53423 -19.262742,11.53423 z"
         id="path1942"
         style="fill:#68bc98;fill-opacity:1;stroke-width:0.195164" /><path
         id="path132"
         style="fill:#8c927c;fill-opacity:1;stroke-width:0.264583"
         d="m 77.495528,25.141101 c -9.339774,0 -16.933333,7.593561 -16.933333,16.933333 v 38.833289 c 1.86784,-0.263405 3.774026,-0.407727 5.714896,-0.407727 H 77.495528 V 42.074434 H 179.09553 v 76.199996 h 16.93333 V 42.074434 c 0,-9.339772 -7.59356,-16.933333 -16.93333,-16.933333 z M 120.1446,109.80777 c -2.54402,13.21754 -8.30438,24.93236 -16.22381,33.86666 h 92.10807 c 4.68313,0 8.46667,-3.78355 8.46667,-8.46666 0,-4.68312 -3.78354,-8.46667 -8.46667,-8.46667 h -33.86667 v -8.46667 c 0,-4.6831 -3.78356,-8.46666 -8.46666,-8.46666 z" /></g><path
       style="fill:none;fill-opacity:1;stroke:#9dceb5;stroke-width:8;stroke-linecap:round;stroke-linejoin:miter;stroke-miterlimit:3;stroke-dasharray:none;stroke-dashoffset:0;stroke-opacity:1"
       d="m 170.10268,348.07397 c 48.55921,-5.82771 70.07786,-50.80014 74.34285,-76.86013"
       id="path8268"
       sodipodi:nodetypes="cc" /></g></svg>
