<?xml version="1.0" encoding="UTF-8" standalone="no"?>
<svg
   viewBox="0 0 512 512"
   version="1.1"
   id="svg4"
   sodipodi:docname="user-control.svg"
   width="512"
   height="512"
   inkscape:version="1.2.2 (b0a8486541, 2022-12-01)"
   xmlns:inkscape="http://www.inkscape.org/namespaces/inkscape"
   xmlns:sodipodi="http://sodipodi.sourceforge.net/DTD/sodipodi-0.dtd"
   xmlns="http://www.w3.org/2000/svg"
   xmlns:svg="http://www.w3.org/2000/svg">
  <defs
     id="defs8" />
  <sodipodi:namedview
     id="namedview6"
     pagecolor="#ffffff"
     bordercolor="#000000"
     borderopacity="0.25"
     inkscape:showpageshadow="2"
     inkscape:pageopacity="0.0"
     inkscape:pagecheckerboard="0"
     inkscape:deskcolor="#d1d1d1"
     showgrid="false"
     inkscape:zoom="0.63152578"
     inkscape:cx="266.81413"
     inkscape:cy="377.65679"
     inkscape:window-width="1389"
     inkscape:window-height="973"
     inkscape:window-x="507"
     inkscape:window-y="83"
     inkscape:window-maximized="1"
     inkscape:current-layer="svg4" />
  <!--! Font Awesome Pro 6.4.0 by @fontawesome - https://fontawesome.com License - https://fontawesome.com/license (Commercial License) Copyright 2023 Fonticons, Inc. -->
  <path
     d="m 183.81133,45.970705 a 105.03506,105.03506 0 1 1 0,210.070105 105.03506,105.03506 0 1 1 0,-210.070105 z M 146.31055,295.42895 h 75.00158 c 9.68291,0 19.20173,0.9847 28.31024,2.70793 -1.72324,15.18085 6.07233,29.21287 17.88877,36.76228 -13.62173,8.6982 -21.90966,25.93052 -16.41171,43.73724 3.28232,10.58558 7.71349,20.92496 13.4576,30.85404 5.74411,9.9291 12.47292,18.95555 20.02231,27.07936 12.88319,13.86791 32.49521,15.09878 46.93754,7.13908 v 0.73854 c 0,7.54942 2.21556,15.18085 6.48263,21.58143 H 24.371414 C 10.913798,466.1109 1.9025293e-7,455.19709 1.9025293e-7,441.7395 1.9025293e-7,360.91174 65.482789,295.42895 146.31055,295.42895 Z m 211.4651,-70.4063 c 0,-5.74411 3.69262,-10.9138 9.27261,-12.14468 8.61616,-1.96941 17.64261,-3.03617 26.83317,-3.03617 9.19058,0 18.21703,1.06676 26.83317,3.03617 5.57999,1.23088 9.27264,6.40057 9.27264,12.14468 v 25.10995 c 6.48264,2.78998 12.63702,6.31851 18.29907,10.50349 L 468.7189,248.9017 c 5.00558,-2.87204 11.24204,-2.21558 15.18085,1.96943 6.23645,6.64674 11.73438,14.11408 16.49378,22.31993 4.75942,8.20587 8.45204,16.73998 11.07793,25.43818 1.72323,5.49793 -0.90264,11.24203 -5.90822,14.11408 l -20.51467,11.81646 c 0.32826,3.28233 0.57441,6.64673 0.57441,10.0932 0,3.44646 -0.16411,6.7288 -0.57441,10.09321 l 20.51467,11.81645 c 5.00558,2.87204 7.54939,8.61615 5.90822,14.11406 -2.70793,8.69824 -6.40056,17.23233 -11.07793,25.43818 -4.67733,8.20587 -10.25733,15.67321 -16.49378,22.31996 -3.93881,4.18498 -10.25733,4.84146 -15.18085,1.9694 l -20.43259,-11.73437 c -5.66205,4.18499 -11.73439,7.71351 -18.29907,10.5035 v 25.10994 c 0,5.7441 -3.69265,10.91378 -9.27264,12.14468 -8.61614,1.9694 -17.64259,3.03618 -26.83317,3.03618 -9.19056,0 -18.21701,-1.06678 -26.83317,-3.03618 -5.57999,-1.2309 -9.27261,-6.40058 -9.27261,-12.14468 v -25.10994 c -6.5647,-2.78999 -12.80117,-6.31851 -18.46321,-10.58558 l -20.26847,11.7344 c -5.00559,2.87207 -11.24204,2.21559 -15.18086,-1.9694 -6.23646,-6.64674 -11.73438,-14.1141 -16.49378,-22.31994 -4.75941,-8.20587 -8.45205,-16.73997 -11.0779,-25.43821 -1.72324,-5.49791 0.90263,-11.24201 5.90819,-14.11406 l 20.35056,-11.73439 c -0.32825,-3.36441 -0.57443,-6.72879 -0.57443,-10.17528 0,-3.44645 0.16414,-6.81085 0.57443,-10.17525 l -20.4326,-11.73438 c -5.00558,-2.87206 -7.54939,-8.61617 -5.90823,-14.11411 2.70793,-8.6982 6.31851,-17.23229 11.07792,-25.43816 4.75941,-8.20588 10.25732,-15.67319 16.49378,-22.31995 3.9388,-4.18499 10.17528,-4.84146 15.18084,-1.96942 l 20.35055,11.73439 c 5.66204,-4.18498 11.89851,-7.71351 18.46321,-10.58557 z m 75.57599,109.54826 a 39.470201,39.470201 0 1 0 -78.85833,0 39.470201,39.470201 0 1 0 78.85833,0 z"
     id="path2"
     style="stroke-width:0.820587" />
</svg>
