<?xml version="1.0" encoding="UTF-8" standalone="no"?>
<svg
   viewBox="0 0 512 512"
   version="1.1"
   id="svg4"
   sodipodi:docname="window-maximize-regular.svg"
   inkscape:version="1.2.2 (b0a8486541, 2022-12-01)"
   xmlns:inkscape="http://www.inkscape.org/namespaces/inkscape"
   xmlns:sodipodi="http://sodipodi.sourceforge.net/DTD/sodipodi-0.dtd"
   xmlns="http://www.w3.org/2000/svg"
   xmlns:svg="http://www.w3.org/2000/svg">
  <defs
     id="defs8" />
  <sodipodi:namedview
     id="namedview6"
     pagecolor="#ffffff"
     bordercolor="#000000"
     borderopacity="0.25"
     inkscape:showpageshadow="2"
     inkscape:pageopacity="0.0"
     inkscape:pagecheckerboard="0"
     inkscape:deskcolor="#d1d1d1"
     showgrid="false"
     inkscape:zoom="1.5415581"
     inkscape:cx="262.07251"
     inkscape:cy="300.02113"
     inkscape:window-width="1688"
     inkscape:window-height="973"
     inkscape:window-x="208"
     inkscape:window-y="83"
     inkscape:window-maximized="1"
     inkscape:current-layer="svg4" />
  <!--! Font Awesome Pro 6.4.0 by @fontawesome - https://fontawesome.com License - https://fontawesome.com/license (Commercial License) Copyright 2023 Fonticons, Inc. -->
  <path
     id="path2"
     d="M 64 32 C 55.268206 32 46.94511 33.765722 39.355469 36.943359 C 39.258986 36.983635 39.15876 37.01591 39.0625 37.056641 C 35.848282 38.421021 32.803746 40.093643 29.882812 41.943359 C 28.702656 42.700446 27.540061 43.479145 26.414062 44.306641 C 25.58521 44.910888 24.749318 45.506048 23.951172 46.148438 C 22.055355 47.682845 20.228358 49.296934 18.517578 51.029297 C 18.066102 51.485869 17.660355 51.985186 17.222656 52.455078 C 15.881402 53.89577 14.604511 55.39598 13.396484 56.955078 C 12.85279 57.658184 12.315449 58.365947 11.800781 59.091797 C 10.647835 60.712876 9.5814941 62.398965 8.5761719 64.128906 C 6.6740536 67.424528 5.0770589 70.906278 3.7792969 74.537109 C 3.4840731 75.365332 3.1375897 76.168806 2.875 77.011719 C 2.8203671 77.187312 2.7894832 77.372594 2.7363281 77.548828 C 0.97264221 83.396292 0 89.583715 0 96 L 0 224 L 0 288 L 0 416 C 0 451.29996 28.700035 480 64 480 L 448 480 C 456.73179 480 465.05489 478.23428 472.64453 475.05664 C 472.74101 475.01636 472.84124 474.98409 472.9375 474.94336 C 476.15172 473.57898 479.19625 471.90636 482.11719 470.05664 C 483.29734 469.29955 484.45994 468.52085 485.58594 467.69336 C 486.41479 467.08911 487.25068 466.49395 488.04883 465.85156 C 489.94465 464.31715 491.77164 462.70307 493.48242 460.9707 C 493.9339 460.51413 494.33965 460.01481 494.77734 459.54492 C 496.1186 458.10423 497.39549 456.60402 498.60352 455.04492 C 499.14721 454.34182 499.68455 453.63405 500.19922 452.9082 C 501.35217 451.28712 502.41851 449.60104 503.42383 447.87109 C 505.32595 444.57547 506.92294 441.09372 508.2207 437.46289 C 508.51593 436.63467 508.86241 435.83119 509.125 434.98828 C 509.17969 434.81271 509.21042 434.62736 509.26367 434.45117 C 511.02736 428.60371 512 422.41628 512 416 L 512 288 L 512 224 L 512 96 C 512 93.793752 511.88874 91.614134 511.66992 89.464844 C 511.01345 83.016974 509.39648 76.848432 506.96484 71.107422 C 505.34375 67.280082 503.35879 63.643551 501.05664 60.238281 C 497.60342 55.130376 493.4342 50.544356 488.69141 46.628906 C 485.52954 44.018606 482.11342 41.706785 478.48633 39.734375 C 469.41859 34.80335 459.03124 32 448 32 L 64 32 z M 64 80 L 448 80 C 456.79999 80 464 87.200009 464 96 L 464 224 L 464 288 L 464 416 C 464 424.79999 456.79999 432 448 432 L 64 432 C 55.200009 432 48 424.79999 48 416 L 48 288 L 48 224 L 48 96 C 48 87.200009 55.200009 80 64 80 z " />
</svg>
