<?xml version="1.0" encoding="UTF-8" standalone="no"?>
<svg
   viewBox="0 0 512 512"
   version="1.1"
   id="svg4"
   sodipodi:docname="arrow-left-solid.svg"
   width="512"
   height="512"
   xml:space="preserve"
   inkscape:version="1.2.1 (9c6d41e410, 2022-07-14, custom)"
   xmlns:inkscape="http://www.inkscape.org/namespaces/inkscape"
   xmlns:sodipodi="http://sodipodi.sourceforge.net/DTD/sodipodi-0.dtd"
   xmlns="http://www.w3.org/2000/svg"
   xmlns:svg="http://www.w3.org/2000/svg"><defs
     id="defs8" /><sodipodi:namedview
     id="namedview6"
     pagecolor="#ffffff"
     bordercolor="#666666"
     borderopacity="1.0"
     inkscape:showpageshadow="2"
     inkscape:pageopacity="0.0"
     inkscape:pagecheckerboard="0"
     inkscape:deskcolor="#d1d1d1"
     showgrid="false"
     inkscape:zoom="0.60965933"
     inkscape:cx="19.683124"
     inkscape:cy="478.95601"
     inkscape:window-width="1542"
     inkscape:window-height="964"
     inkscape:window-x="354"
     inkscape:window-y="96"
     inkscape:window-maximized="1"
     inkscape:current-layer="svg4" /><!--! Font Awesome Pro 6.2.0 by @fontawesome - https://fontawesome.com License - https://fontawesome.com/license (Commercial License) Copyright 2022 Fonticons, Inc. --><path
     id="path2"
     style="stroke-width:0.999805"
     d="m 223.92578,64 c -8.19999,0 -16.4004,3.12354 -22.65039,9.371094 L 41.275391,233.30859 41.375,233.4082 c -12.499987,12.49511 -12.499987,32.7881 0,45.28321 l 160,159.9375 c 12.49999,12.4951 32.80079,12.4951 45.30078,0 12.49999,-12.49511 12.49999,-32.7881 0,-45.28321 L 141.17578,287.98828 384,288 c 17.69996,0 32,14.30004 32,32 v 104 c 0,17.69996 14.30004,32 32,32 17.69996,0 32,-14.30004 32,-32 V 320 c 0,-52.9999 -43.0001,-96 -96,-96 l -242.72461,0.0117 105.29883,-105.3574 c 12.49999,-12.49511 12.49999,-32.7881 0,-45.283206 C 240.32423,67.12354 232.12577,64 223.92578,64 Z"
     sodipodi:nodetypes="scccssscccssssscccss" /></svg>
