<?xml version="1.0" encoding="UTF-8" standalone="no"?>
<svg
   viewBox="0 0 512 512"
   version="1.1"
   id="svg4"
   sodipodi:docname="info-solid.svg"
   width="512"
   height="512"
   inkscape:version="1.2.2 (b0a8486541, 2022-12-01)"
   xmlns:inkscape="http://www.inkscape.org/namespaces/inkscape"
   xmlns:sodipodi="http://sodipodi.sourceforge.net/DTD/sodipodi-0.dtd"
   xmlns="http://www.w3.org/2000/svg"
   xmlns:svg="http://www.w3.org/2000/svg">
  <defs
     id="defs8" />
  <sodipodi:namedview
     id="namedview6"
     pagecolor="#ffffff"
     bordercolor="#000000"
     borderopacity="0.25"
     inkscape:showpageshadow="2"
     inkscape:pageopacity="0.0"
     inkscape:pagecheckerboard="0"
     inkscape:deskcolor="#d1d1d1"
     showgrid="false"
     inkscape:zoom="0.72545115"
     inkscape:cx="324.62558"
     inkscape:cy="252.94605"
     inkscape:window-width="928"
     inkscape:window-height="973"
     inkscape:window-x="968"
     inkscape:window-y="83"
     inkscape:window-maximized="1"
     inkscape:current-layer="svg4" />
  <!--! Font Awesome Pro 6.4.0 by @fontawesome - https://fontawesome.com License - https://fontawesome.com/license (Commercial License) Copyright 2023 Fonticons, Inc. -->
  <path
     d="m 208,64 a 48,48 0 1 1 96,0 48,48 0 1 1 -96,0 z m -48,144 c 0,-17.7 14.3,-32 32,-32 h 64 c 17.7,0 32,14.3 32,32 v 224 h 32 c 17.7,0 32,14.3 32,32 0,17.7 -14.3,32 -32,32 H 192 c -17.7,0 -32,-14.3 -32,-32 0,-17.7 14.3,-32 32,-32 h 32 V 240 h -32 c -17.7,0 -32,-14.3 -32,-32 z"
     id="path2" />
</svg>
